<?xml version="1.0" encoding="utf-8"?>
<!-- Generator: Adobe Illustrator 21.0.2, SVG Export Plug-In . SVG Version: 6.00 Build 0)  -->
<svg version="1.1" id="Layer_1" xmlns="http://www.w3.org/2000/svg" xmlns:xlink="http://www.w3.org/1999/xlink" x="0px" y="0px"
	 viewBox="0 0 100 100" style="enable-background:new 0 0 100 100;" xml:space="preserve">
<g>
	<path d="M77,33h-2c0-5.5-4.5-10-10-10h-0.4L61.7,9.7C61,6.9,58.6,5,55.8,5H36.2c-2.8,0-5.2,1.9-5.9,4.7L27.4,23H27
		c-5.5,0-10,4.5-10,10v34c0,5.5,4.5,10,10,10h0.4l2.9,13.3c0.6,2.8,3,4.7,5.9,4.7h19.6c2.8,0,5.2-1.9,5.9-4.7L64.6,77H65
		c5.5,0,10-4.5,10-10V49h2c3.3,0,6-2.7,6-6v-4C83,35.7,80.3,33,77,33z M34.3,10.6c0.2-0.9,1-1.6,2-1.6h19.6c1,0,1.8,0.6,2,1.6
		L60.5,23h-29L34.3,10.6z M57.7,89.4c-0.2,0.9-1,1.6-2,1.6H36.2c-1,0-1.8-0.6-2-1.6L31.5,77h29L57.7,89.4z M71,67c0,3.3-2.7,6-6,6
		H27c-3.3,0-6-2.7-6-6V33c0-3.3,2.7-6,6-6h38c3.3,0,6,2.7,6,6V67z M79,43c0,1.1-0.9,2-2,2h-2v-8h2c1.1,0,2,0.9,2,2V43z"/>
	<path d="M46,35c-6.6,0-12.8,2.7-17.4,7.5c-0.8,0.8-0.7,2.1,0.1,2.8c0.4,0.4,0.9,0.5,1.4,0.5c0.5,0,1.1-0.2,1.5-0.6
		c3.8-4,9-6.2,14.5-6.2s10.7,2.2,14.5,6.2c0.8,0.8,2,0.8,2.8,0.1c0.8-0.8,0.8-2,0.1-2.8C58.8,37.7,52.6,35,46,35z"/>
	<path d="M46,43c-4.7,0-9.1,2-12.2,5.6c-0.7,0.8-0.6,2.1,0.2,2.8c0.8,0.7,2.1,0.6,2.8-0.2c2.3-2.7,5.6-4.2,9.1-4.2s6.8,1.5,9.1,4.2
		c0.4,0.5,1,0.7,1.5,0.7c0.5,0,0.9-0.2,1.3-0.5c0.8-0.7,0.9-2,0.2-2.8C55.1,45,50.7,43,46,43z"/>
	<path d="M46,51c-2.9,0-5.5,1.6-7,4.1c-0.5,1-0.2,2.2,0.8,2.7c0.3,0.2,0.7,0.3,1,0.3c0.7,0,1.4-0.4,1.8-1c0.7-1.3,2-2,3.5-2
		s2.8,0.8,3.5,2c0.5,1,1.8,1.3,2.7,0.8c1-0.5,1.3-1.8,0.8-2.7C51.5,52.6,48.9,51,46,51z"/>
	<circle cx="46" cy="63" r="2"/>
</g>
</svg>
